<?xml version="1.0" encoding="UTF-8" standalone="no"?>
<!-- Created with Inkscape (http://www.inkscape.org/) -->

<svg
   width="130.8643mm"
   height="125.74168mm"
   viewBox="0 0 130.8643 125.74168"
   version="1.1"
   id="svg1"
   inkscape:version="1.4 (86a8ad7, 2024-10-11)"
   sodipodi:docname="lives.svg"
   xmlns:inkscape="http://www.inkscape.org/namespaces/inkscape"
   xmlns:sodipodi="http://sodipodi.sourceforge.net/DTD/sodipodi-0.dtd"
   xmlns="http://www.w3.org/2000/svg"
   xmlns:svg="http://www.w3.org/2000/svg">
  <sodipodi:namedview
     id="namedview1"
     pagecolor="#ffffff"
     bordercolor="#000000"
     borderopacity="0.25"
     inkscape:showpageshadow="2"
     inkscape:pageopacity="0.0"
     inkscape:pagecheckerboard="0"
     inkscape:deskcolor="#d1d1d1"
     inkscape:document-units="mm"
     inkscape:zoom="0.69753788"
     inkscape:cx="-19.353788"
     inkscape:cy="210.02444"
     inkscape:window-width="1920"
     inkscape:window-height="1001"
     inkscape:window-x="-9"
     inkscape:window-y="-9"
     inkscape:window-maximized="1"
     inkscape:current-layer="layer1" />
  <defs
     id="defs1" />
  <g
     inkscape:label="Katman 1"
     inkscape:groupmode="layer"
     id="layer1"
     transform="translate(-18.014741,-91.413542)">
    <path
       d="m 50.069464,91.413542 c -14.322613,0.07903 -26.863706,10.356318 -31.594971,25.328168 -0.01198,0.15495 -0.02583,0.30922 -0.03411,0.46457 -0.02455,0.56167 -0.03087,1.12392 -0.03617,1.6862 -0.0043,0.51642 -0.0053,1.03333 -0.0062,1.54978 0.0056,0.55049 -0.06849,1.09602 -0.113688,1.64279 -0.03647,0.54233 -0.123273,1.07779 -0.173633,1.61851 -0.04566,0.50852 -0.06167,1.0193 -0.0739,1.53014 -0.01053,0.49319 -0.01352,0.98668 -0.01602,1.48001 -0.002,0.46401 -0.0022,0.92763 -0.0026,1.39165 -3.09e-4,0.49693 -4.6e-4,0.99445 -5.17e-4,1.49138 -0.0066,0.51124 -0.0048,1.01959 0.03566,1.52859 0.07502,0.60931 0.236142,1.19455 0.361735,1.79059 11.542956,35.81833 37.89256,62.46946 65.167082,83.14893 l -0.322461,-0.11782 -10e-4,1.20819 0.463538,-0.60771 0.295072,0.38395 v -0.0403 l -0.0031,-0.72502 c 25.561979,-20.17567 50.943159,-43.34922 63.432819,-81.28547 0.0226,-0.12294 0.0535,-0.25074 0.0956,-0.38499 0.0789,-0.2515 0.16614,-0.49862 0.25839,-0.74311 0.0763,-0.25853 0.15859,-0.51489 0.21497,-0.78083 0.13113,-0.53961 0.21803,-1.08579 0.26303,-1.64486 0.0853,-0.54762 0.20392,-1.08344 0.34262,-1.61541 0.0827,-0.31874 0.1713,-0.63532 0.25735,-0.95291 2.9e-4,-0.0106 -3.6e-4,-0.0217 0,-0.0326 -1.1e-4,-0.59563 -4.8e-4,-1.19135 -0.001,-1.78697 0,-0.56235 -8.1e-4,-1.12439 -0.005,-1.68672 -0.004,-0.48858 -0.009,-0.97745 -0.03,-1.46554 -0.0218,-0.46792 -0.0473,-0.93738 -0.11989,-1.39888 -0.065,-0.39183 -0.13089,-0.78406 -0.21549,-1.17047 -0.12764,-0.44897 -0.26578,-0.89405 -0.39946,-1.34049 -0.2356,-0.74809 -0.4035,-1.52052 -0.61546,-2.2779 -0.29317,-1.04692 -0.57313,-2.09779 -0.84595,-3.15226 C 141.21674,100.95337 129.31397,92.143687 116.06905,92.083785 100.14159,92.129591 86.40928,104.76291 83.122743,122.39408 80.073676,104.45222 66.219224,91.466699 50.069464,91.413542 Z"
       style="fill:#ff0000;stroke-width:17.1079;paint-order:stroke fill markers"
       id="path21" />
    <path
       style="fill:#ff0000;stroke-width:17.6258;paint-order:stroke fill markers"
       d="m 119.48276,113.03448 c 0.47414,68.27586 0,0 0,0 z"
       id="path6" />
    <path
       style="fill:#ff0000;stroke-width:15.765;paint-order:stroke fill markers"
       d="m 187,112.08621 -67.51724,74.72413"
       id="path8" />
  </g>
</svg>
